# xmcd
#
# Track frame offsets:
#	150
#	12144
#	27313
#	41084
#	58778
#	75343
#	89036
#	106239
#	119557
#	128926
#	141787
#
# Disc length: 2048 seconds
#
# Revision: 0
# Processed by: cddbd v1.5.2PL0 Copyright (c) Steve Scherf et al.
# Submitted via: EasyCDDAExtractor 10.0.3.1
#
DISCID=9207fe0b
DTITLE=Djalma Siqueira - O Balanço do Forró Nordestino
DYEAR=2006
DGENRE=Forró
TTITLE0=Rapidinha de amor
TTITLE1=Teu amor me pegou de jeito
TTITLE2=Se perguntar por mim
TTITLE3=O rei nas estrelas
TTITLE4=Balanço brasileiro
TTITLE5=Na pena do beija-flor
TTITLE6=No calo da paixão
TTITLE7=A minha paixão
TTITLE8=Procurando
TTITLE9=Forró da panelada
TTITLE10=Dançar com você
EXTD=
EXTT0=
EXTT1=
EXTT2=
EXTT3=
EXTT4=
EXTT5=
EXTT6=
EXTT7=
EXTT8=
EXTT9=
EXTT10=
PLAYORDER=
